<svg width="971" height="262" viewBox="0 0 971 262" fill="none" xmlns="http://www.w3.org/2000/svg">
<path d="M31.024 44V3.12H40.208V44H31.024ZM4.592 44V3.12H13.776V44H4.592ZM12.152 27.48V19.416H32.648V27.48H12.152ZM51.3331 44V13.312H60.2931V44H51.3331ZM47.2451 19.92V13.312H60.2931V19.92H47.2451ZM54.8051 10.288C53.1251 10.288 51.8744 9.85866 51.0531 9C50.2691 8.104 49.8771 6.984 49.8771 5.64C49.8771 4.25866 50.2691 3.13866 51.0531 2.28C51.8744 1.384 53.1251 0.935997 54.8051 0.935997C56.4851 0.935997 57.7171 1.384 58.5011 2.28C59.3224 3.13866 59.7331 4.25866 59.7331 5.64C59.7331 6.984 59.3224 8.104 58.5011 9C57.7171 9.85866 56.4851 10.288 54.8051 10.288ZM82.954 44V3.12H92.138V44H82.954ZM101.932 44V13.312H109.044V26.528H108.54C108.54 23.392 108.932 20.7787 109.716 18.688C110.5 16.5973 111.676 15.0293 113.244 13.984C114.812 12.9013 116.734 12.36 119.012 12.36H119.404C121.718 12.36 123.641 12.9013 125.172 13.984C126.74 15.0293 127.916 16.5973 128.7 18.688C129.521 20.7787 129.932 23.392 129.932 26.528H127.748C127.748 23.392 128.14 20.7787 128.924 18.688C129.745 16.5973 130.94 15.0293 132.508 13.984C134.076 12.9013 135.998 12.36 138.276 12.36H138.668C140.982 12.36 142.924 12.9013 144.492 13.984C146.097 15.0293 147.31 16.5973 148.132 18.688C148.953 20.7787 149.364 23.392 149.364 26.528V44H140.404V26.024C140.404 24.344 139.956 22.9813 139.06 21.936C138.201 20.8907 136.969 20.368 135.364 20.368C133.758 20.368 132.489 20.9093 131.556 21.992C130.622 23.0373 130.156 24.4373 130.156 26.192V44H121.14V26.024C121.14 24.344 120.692 22.9813 119.796 21.936C118.937 20.8907 117.724 20.368 116.156 20.368C114.513 20.368 113.225 20.9093 112.292 21.992C111.358 23.0373 110.892 24.4373 110.892 26.192V44H101.932ZM171.264 44V3.12H180.224V44H171.264ZM179.104 44V36.384H196.968V44H179.104ZM179.104 27.032V19.416H195.68V27.032H179.104ZM179.104 10.736V3.12H196.576V10.736H179.104ZM216.9 45.008C214.735 45.008 212.756 44.616 210.964 43.832C209.21 43.048 207.679 41.9653 206.372 40.584C205.066 39.1653 204.058 37.504 203.348 35.6C202.676 33.696 202.34 31.6427 202.34 29.44V28.152C202.34 25.9493 202.658 23.896 203.292 21.992C203.964 20.088 204.916 18.4267 206.148 17.008C207.418 15.552 208.93 14.432 210.684 13.648C212.439 12.8267 214.399 12.416 216.564 12.416C219.028 12.416 221.156 12.9573 222.948 14.04C224.74 15.0853 226.14 16.6533 227.148 18.744C228.156 20.7973 228.716 23.336 228.828 26.36L226.476 24.176V3.12H235.492V44H228.38V31.288H229.612C229.5 34.2 228.884 36.6827 227.764 38.736C226.682 40.7893 225.207 42.3573 223.34 43.44C221.474 44.4853 219.327 45.008 216.9 45.008ZM219.14 37.504C220.522 37.504 221.772 37.2053 222.892 36.608C224.05 35.9733 224.964 35.0587 225.636 33.864C226.346 32.6693 226.7 31.232 226.7 29.552V27.48C226.7 25.8373 226.346 24.456 225.636 23.336C224.927 22.216 223.994 21.3573 222.836 20.76C221.679 20.1627 220.428 19.864 219.084 19.864C217.591 19.864 216.247 20.256 215.052 21.04C213.895 21.7867 212.98 22.832 212.308 24.176C211.636 25.4827 211.3 27.0133 211.3 28.768C211.3 30.56 211.636 32.1093 212.308 33.416C212.98 34.7227 213.914 35.7307 215.108 36.44C216.303 37.1493 217.647 37.504 219.14 37.504ZM254.979 44.952C251.433 44.952 248.707 43.8133 246.803 41.536C244.899 39.2213 243.947 35.7493 243.947 31.12V13.312H252.907V31.568C252.907 33.2107 253.374 34.5173 254.307 35.488C255.241 36.4587 256.491 36.944 258.059 36.944C259.665 36.944 260.971 36.44 261.979 35.432C262.987 34.424 263.491 33.0613 263.491 31.344V13.312H272.451V44H265.339V31.064H265.955C265.955 34.1627 265.545 36.7573 264.723 38.848C263.939 40.9013 262.763 42.432 261.195 43.44C259.627 44.448 257.686 44.952 255.371 44.952H254.979ZM300.249 44V34.928H298.737V25.072C298.737 23.504 298.364 22.328 297.617 21.544C296.87 20.76 295.676 20.368 294.033 20.368C293.212 20.368 292.129 20.3867 290.785 20.424C289.441 20.4613 288.06 20.5173 286.641 20.592C285.222 20.6667 283.934 20.7413 282.777 20.816V13.256C283.636 13.1813 284.644 13.1067 285.801 13.032C286.958 12.9573 288.153 12.9013 289.385 12.864C290.617 12.8267 291.774 12.808 292.857 12.808C295.993 12.808 298.625 13.256 300.753 14.152C302.918 15.048 304.561 16.4107 305.681 18.24C306.801 20.032 307.361 22.3467 307.361 25.184V44H300.249ZM290.449 44.784C288.246 44.784 286.305 44.392 284.625 43.608C282.982 42.824 281.694 41.704 280.761 40.248C279.828 38.7547 279.361 36.9813 279.361 34.928C279.361 32.688 279.94 30.8587 281.097 29.44C282.254 27.984 283.878 26.92 285.969 26.248C288.06 25.5387 290.468 25.184 293.193 25.184H299.745V30.168H293.137C291.569 30.168 290.356 30.56 289.497 31.344C288.676 32.0907 288.265 33.1173 288.265 34.424C288.265 35.656 288.676 36.664 289.497 37.448C290.356 38.1947 291.569 38.568 293.137 38.568C294.145 38.568 295.041 38.4 295.825 38.064C296.646 37.6907 297.318 37.0747 297.841 36.216C298.364 35.3573 298.662 34.1627 298.737 32.632L300.865 34.872C300.678 37 300.156 38.792 299.297 40.248C298.476 41.704 297.318 42.824 295.825 43.608C294.369 44.392 292.577 44.784 290.449 44.784ZM315.963 44V13.312H323.075V26.472H322.907C322.907 22.1413 323.822 18.8 325.651 16.448C327.518 14.096 330.206 12.92 333.715 12.92H334.891V20.648H332.651C330.187 20.648 328.283 21.32 326.939 22.664C325.595 23.9707 324.923 25.8747 324.923 28.376V44H315.963ZM353.025 45.008C350.86 45.008 348.881 44.616 347.089 43.832C345.335 43.048 343.804 41.9653 342.497 40.584C341.191 39.1653 340.183 37.504 339.473 35.6C338.801 33.696 338.465 31.6427 338.465 29.44V28.152C338.465 25.9493 338.783 23.896 339.417 21.992C340.089 20.088 341.041 18.4267 342.273 17.008C343.543 15.552 345.055 14.432 346.809 13.648C348.564 12.8267 350.524 12.416 352.689 12.416C355.153 12.416 357.281 12.9573 359.073 14.04C360.865 15.0853 362.265 16.6533 363.273 18.744C364.281 20.7973 364.841 23.336 364.953 26.36L362.601 24.176V3.12H371.617V44H364.505V31.288H365.737C365.625 34.2 365.009 36.6827 363.889 38.736C362.807 40.7893 361.332 42.3573 359.465 43.44C357.599 44.4853 355.452 45.008 353.025 45.008ZM355.265 37.504C356.647 37.504 357.897 37.2053 359.017 36.608C360.175 35.9733 361.089 35.0587 361.761 33.864C362.471 32.6693 362.825 31.232 362.825 29.552V27.48C362.825 25.8373 362.471 24.456 361.761 23.336C361.052 22.216 360.119 21.3573 358.961 20.76C357.804 20.1627 356.553 19.864 355.209 19.864C353.716 19.864 352.372 20.256 351.177 21.04C350.02 21.7867 349.105 22.832 348.433 24.176C347.761 25.4827 347.425 27.0133 347.425 28.768C347.425 30.56 347.761 32.1093 348.433 33.416C349.105 34.7227 350.039 35.7307 351.233 36.44C352.428 37.1493 353.772 37.504 355.265 37.504ZM395.696 45.064C393.008 45.064 390.619 44.6533 388.528 43.832C386.438 42.9733 384.664 41.816 383.208 40.36C381.79 38.904 380.707 37.2427 379.96 35.376C379.214 33.472 378.84 31.4747 378.84 29.384V28.096C378.84 25.968 379.214 23.952 379.96 22.048C380.744 20.1067 381.864 18.408 383.32 16.952C384.814 15.496 386.606 14.3573 388.696 13.536C390.787 12.6773 393.12 12.248 395.696 12.248C398.347 12.248 400.699 12.6773 402.752 13.536C404.843 14.3573 406.616 15.496 408.072 16.952C409.528 18.408 410.648 20.1067 411.432 22.048C412.216 23.952 412.608 25.968 412.608 28.096V29.384C412.608 31.4747 412.235 33.472 411.488 35.376C410.742 37.2427 409.64 38.904 408.184 40.36C406.766 41.816 405.011 42.9733 402.92 43.832C400.83 44.6533 398.422 45.064 395.696 45.064ZM395.696 37.504C397.451 37.504 398.907 37.1307 400.064 36.384C401.222 35.6373 402.099 34.592 402.696 33.248C403.331 31.904 403.648 30.4107 403.648 28.768C403.648 27.0133 403.331 25.4827 402.696 24.176C402.062 22.832 401.147 21.768 399.952 20.984C398.795 20.2 397.376 19.808 395.696 19.808C394.054 19.808 392.635 20.2 391.44 20.984C390.246 21.768 389.331 22.832 388.696 24.176C388.099 25.4827 387.8 27.0133 387.8 28.768C387.8 30.4107 388.099 31.904 388.696 33.248C389.294 34.592 390.19 35.6373 391.384 36.384C392.579 37.1307 394.016 37.504 395.696 37.504ZM433.123 44V2.784H442.307V44H433.123ZM457.931 44L445.947 26.416H456.027L468.571 44H457.931ZM439.843 30.896V23.672H449.923C451.267 23.672 452.425 23.4107 453.395 22.888C454.403 22.328 455.169 21.5627 455.691 20.592C456.251 19.584 456.531 18.4267 456.531 17.12C456.531 15.8133 456.251 14.6747 455.691 13.704C455.169 12.696 454.403 11.9307 453.395 11.408C452.425 10.848 451.267 10.568 449.923 10.568H439.843V2.784H449.195C452.593 2.784 455.542 3.30666 458.043 4.352C460.545 5.36 462.467 6.872 463.811 8.888C465.155 10.904 465.827 13.4427 465.827 16.504V17.4C465.827 20.424 465.137 22.944 463.755 24.96C462.411 26.9387 460.489 28.432 457.987 29.44C455.523 30.4107 452.593 30.896 449.195 30.896H439.843ZM488.035 45.064C485.421 45.064 483.107 44.616 481.091 43.72C479.112 42.824 477.451 41.6293 476.107 40.136C474.8 38.6053 473.792 36.9067 473.083 35.04C472.411 33.136 472.075 31.1947 472.075 29.216V28.096C472.075 26.0427 472.411 24.0827 473.083 22.216C473.792 20.312 474.8 18.6133 476.107 17.12C477.413 15.6267 479.037 14.4507 480.979 13.592C482.957 12.696 485.197 12.248 487.699 12.248C490.984 12.248 493.747 12.9947 495.987 14.488C498.264 15.944 500 17.8667 501.195 20.256C502.389 22.608 502.987 25.184 502.987 27.984V31.008H475.827V25.912H497.555L494.643 28.264C494.643 26.4347 494.381 24.8667 493.859 23.56C493.336 22.2533 492.552 21.264 491.507 20.592C490.499 19.8827 489.229 19.528 487.699 19.528C486.131 19.528 484.805 19.8827 483.723 20.592C482.64 21.3013 481.819 22.3467 481.259 23.728C480.699 25.072 480.419 26.7333 480.419 28.712C480.419 30.5413 480.68 32.1467 481.203 33.528C481.725 34.872 482.547 35.9173 483.667 36.664C484.787 37.4107 486.243 37.784 488.035 37.784C489.677 37.784 491.021 37.4667 492.067 36.832C493.112 36.1973 493.821 35.4133 494.195 34.48H502.427C501.979 36.5333 501.101 38.3627 499.795 39.968C498.488 41.5733 496.845 42.824 494.867 43.72C492.888 44.616 490.611 45.064 488.035 45.064ZM507.635 44V37.728L522.026 20.48V21.376L520.683 19.696L521.691 20.2H507.691V13.312H531.827V19.584L517.435 36.832V35.992L518.779 37.672L517.771 37.112H532.275V44H507.635ZM552.433 45.064C549.82 45.064 547.505 44.616 545.489 43.72C543.51 42.824 541.849 41.6293 540.505 40.136C539.198 38.6053 538.19 36.9067 537.481 35.04C536.809 33.136 536.473 31.1947 536.473 29.216V28.096C536.473 26.0427 536.809 24.0827 537.481 22.216C538.19 20.312 539.198 18.6133 540.505 17.12C541.812 15.6267 543.436 14.4507 545.377 13.592C547.356 12.696 549.596 12.248 552.097 12.248C555.382 12.248 558.145 12.9947 560.385 14.488C562.662 15.944 564.398 17.8667 565.593 20.256C566.788 22.608 567.385 25.184 567.385 27.984V31.008H540.225V25.912H561.953L559.041 28.264C559.041 26.4347 558.78 24.8667 558.257 23.56C557.734 22.2533 556.95 21.264 555.905 20.592C554.897 19.8827 553.628 19.528 552.097 19.528C550.529 19.528 549.204 19.8827 548.121 20.592C547.038 21.3013 546.217 22.3467 545.657 23.728C545.097 25.072 544.817 26.7333 544.817 28.712C544.817 30.5413 545.078 32.1467 545.601 33.528C546.124 34.872 546.945 35.9173 548.065 36.664C549.185 37.4107 550.641 37.784 552.433 37.784C554.076 37.784 555.42 37.4667 556.465 36.832C557.51 36.1973 558.22 35.4133 558.593 34.48H566.825C566.377 36.5333 565.5 38.3627 564.193 39.968C562.886 41.5733 561.244 42.824 559.265 43.72C557.286 44.616 555.009 45.064 552.433 45.064ZM574.322 44V13.312H581.434V26.472H580.93C580.93 23.336 581.322 20.7227 582.106 18.632C582.928 16.5413 584.16 14.9733 585.802 13.928C587.445 12.8827 589.442 12.36 591.794 12.36H592.186C595.77 12.36 598.496 13.536 600.362 15.888C602.266 18.2027 603.218 21.7307 603.218 26.472V44H594.258V25.968C594.258 24.3253 593.773 22.9813 592.802 21.936C591.832 20.8907 590.525 20.368 588.882 20.368C587.202 20.368 585.84 20.9093 584.794 21.992C583.786 23.0373 583.282 24.4187 583.282 26.136V44H574.322ZM624.51 45.008C622.344 45.008 620.366 44.616 618.574 43.832C616.819 43.048 615.288 41.9653 613.982 40.584C612.675 39.1653 611.667 37.504 610.958 35.6C610.286 33.696 609.95 31.6427 609.95 29.44V28.152C609.95 25.9493 610.267 23.896 610.902 21.992C611.574 20.088 612.526 18.4267 613.758 17.008C615.027 15.552 616.539 14.432 618.294 13.648C620.048 12.8267 622.008 12.416 624.174 12.416C626.638 12.416 628.766 12.9573 630.558 14.04C632.35 15.0853 633.75 16.6533 634.758 18.744C635.766 20.7973 636.326 23.336 636.438 26.36L634.086 24.176V3.12H643.102V44H635.99V31.288H637.222C637.11 34.2 636.494 36.6827 635.374 38.736C634.291 40.7893 632.816 42.3573 630.95 43.44C629.083 44.4853 626.936 45.008 624.51 45.008ZM626.75 37.504C628.131 37.504 629.382 37.2053 630.502 36.608C631.659 35.9733 632.574 35.0587 633.246 33.864C633.955 32.6693 634.31 31.232 634.31 29.552V27.48C634.31 25.8373 633.955 24.456 633.246 23.336C632.536 22.216 631.603 21.3573 630.446 20.76C629.288 20.1627 628.038 19.864 626.694 19.864C625.2 19.864 623.856 20.256 622.662 21.04C621.504 21.7867 620.59 22.832 619.918 24.176C619.246 25.4827 618.91 27.0133 618.91 28.768C618.91 30.56 619.246 32.1093 619.918 33.416C620.59 34.7227 621.523 35.7307 622.718 36.44C623.912 37.1493 625.256 37.504 626.75 37.504ZM666.285 45.064C663.671 45.064 661.357 44.616 659.341 43.72C657.362 42.824 655.701 41.6293 654.357 40.136C653.05 38.6053 652.042 36.9067 651.333 35.04C650.661 33.136 650.325 31.1947 650.325 29.216V28.096C650.325 26.0427 650.661 24.0827 651.333 22.216C652.042 20.312 653.05 18.6133 654.357 17.12C655.663 15.6267 657.287 14.4507 659.229 13.592C661.207 12.696 663.447 12.248 665.949 12.248C669.234 12.248 671.997 12.9947 674.237 14.488C676.514 15.944 678.25 17.8667 679.445 20.256C680.639 22.608 681.237 25.184 681.237 27.984V31.008H654.077V25.912H675.805L672.893 28.264C672.893 26.4347 672.631 24.8667 672.109 23.56C671.586 22.2533 670.802 21.264 669.757 20.592C668.749 19.8827 667.479 19.528 665.949 19.528C664.381 19.528 663.055 19.8827 661.973 20.592C660.89 21.3013 660.069 22.3467 659.509 23.728C658.949 25.072 658.669 26.7333 658.669 28.712C658.669 30.5413 658.93 32.1467 659.453 33.528C659.975 34.872 660.797 35.9173 661.917 36.664C663.037 37.4107 664.493 37.784 666.285 37.784C667.927 37.784 669.271 37.4667 670.317 36.832C671.362 36.1973 672.071 35.4133 672.445 34.48H680.677C680.229 36.5333 679.351 38.3627 678.045 39.968C676.738 41.5733 675.095 42.824 673.117 43.72C671.138 44.616 668.861 45.064 666.285 45.064ZM690.819 53.576L683.931 50.888L689.811 33.752L697.427 36.552L690.819 53.576ZM735.233 44V34.928H733.721V25.072C733.721 23.504 733.348 22.328 732.601 21.544C731.855 20.76 730.66 20.368 729.017 20.368C728.196 20.368 727.113 20.3867 725.769 20.424C724.425 20.4613 723.044 20.5173 721.625 20.592C720.207 20.6667 718.919 20.7413 717.761 20.816V13.256C718.62 13.1813 719.628 13.1067 720.785 13.032C721.943 12.9573 723.137 12.9013 724.369 12.864C725.601 12.8267 726.759 12.808 727.841 12.808C730.977 12.808 733.609 13.256 735.737 14.152C737.903 15.048 739.545 16.4107 740.665 18.24C741.785 20.032 742.345 22.3467 742.345 25.184V44H735.233ZM725.433 44.784C723.231 44.784 721.289 44.392 719.609 43.608C717.967 42.824 716.679 41.704 715.745 40.248C714.812 38.7547 714.345 36.9813 714.345 34.928C714.345 32.688 714.924 30.8587 716.081 29.44C717.239 27.984 718.863 26.92 720.953 26.248C723.044 25.5387 725.452 25.184 728.177 25.184H734.729V30.168H728.121C726.553 30.168 725.34 30.56 724.481 31.344C723.66 32.0907 723.249 33.1173 723.249 34.424C723.249 35.656 723.66 36.664 724.481 37.448C725.34 38.1947 726.553 38.568 728.121 38.568C729.129 38.568 730.025 38.4 730.809 38.064C731.631 37.6907 732.303 37.0747 732.825 36.216C733.348 35.3573 733.647 34.1627 733.721 32.632L735.849 34.872C735.663 37 735.14 38.792 734.281 40.248C733.46 41.704 732.303 42.824 730.809 43.608C729.353 44.392 727.561 44.784 725.433 44.784ZM775.353 44.952C770.985 44.952 767.569 44.056 765.105 42.264C762.641 40.472 761.335 37.952 761.185 34.704H769.137C769.287 35.6747 769.865 36.552 770.873 37.336C771.919 38.0827 773.468 38.456 775.521 38.456C777.089 38.456 778.377 38.1947 779.385 37.672C780.431 37.112 780.953 36.328 780.953 35.32C780.953 34.424 780.561 33.7147 779.777 33.192C778.993 32.632 777.593 32.24 775.577 32.016L773.169 31.792C769.473 31.4187 766.692 30.392 764.825 28.712C762.996 27.032 762.081 24.8853 762.081 22.272C762.081 20.1067 762.623 18.296 763.705 16.84C764.788 15.384 766.281 14.2827 768.185 13.536C770.127 12.7893 772.329 12.416 774.793 12.416C778.751 12.416 781.943 13.2933 784.369 15.048C786.796 16.7653 788.065 19.2667 788.177 22.552H780.225C780.076 21.544 779.553 20.704 778.657 20.032C777.761 19.3227 776.436 18.968 774.681 18.968C773.3 18.968 772.199 19.2293 771.377 19.752C770.556 20.2747 770.145 20.984 770.145 21.88C770.145 22.7387 770.5 23.392 771.209 23.84C771.919 24.288 773.076 24.6053 774.681 24.792L777.089 25.016C780.86 25.4267 783.791 26.472 785.881 28.152C787.972 29.832 789.017 32.0907 789.017 34.928C789.017 36.9813 788.457 38.7733 787.337 40.304C786.217 41.7973 784.631 42.9547 782.577 43.776C780.524 44.56 778.116 44.952 775.353 44.952ZM795.822 55.2V13.312H802.934V26.584L801.982 26.528C802.132 23.4667 802.766 20.8907 803.886 18.8C805.006 16.672 806.518 15.0853 808.422 14.04C810.326 12.9573 812.473 12.416 814.862 12.416C816.99 12.416 818.913 12.808 820.63 13.592C822.385 14.376 823.878 15.4773 825.11 16.896C826.38 18.2773 827.332 19.92 827.966 21.824C828.638 23.6907 828.974 25.744 828.974 27.984V29.272C828.974 31.4747 828.657 33.5467 828.022 35.488C827.388 37.392 826.454 39.0533 825.222 40.472C824.028 41.8907 822.553 43.0107 820.798 43.832C819.081 44.616 817.102 45.008 814.862 45.008C812.548 45.008 810.457 44.5413 808.59 43.608C806.761 42.6373 805.286 41.1813 804.166 39.24C803.046 37.2613 802.43 34.76 802.318 31.736L804.782 35.096V55.2H795.822ZM812.342 37.504C813.873 37.504 815.198 37.1307 816.318 36.384C817.476 35.6373 818.372 34.592 819.006 33.248C819.641 31.904 819.958 30.3547 819.958 28.6C819.958 26.8453 819.641 25.3147 819.006 24.008C818.372 22.7013 817.494 21.6933 816.374 20.984C815.254 20.2373 813.91 19.864 812.342 19.864C810.998 19.864 809.729 20.1813 808.534 20.816C807.34 21.4507 806.369 22.3653 805.622 23.56C804.913 24.7173 804.558 26.136 804.558 27.816V29.888C804.558 31.4933 804.932 32.8747 805.678 34.032C806.462 35.152 807.452 36.0107 808.646 36.608C809.841 37.2053 811.073 37.504 812.342 37.504ZM850.253 45.064C847.64 45.064 845.325 44.616 843.309 43.72C841.331 42.824 839.669 41.6293 838.325 40.136C837.019 38.6053 836.011 36.9067 835.301 35.04C834.629 33.136 834.293 31.1947 834.293 29.216V28.096C834.293 26.0427 834.629 24.0827 835.301 22.216C836.011 20.312 837.019 18.6133 838.325 17.12C839.632 15.6267 841.256 14.4507 843.197 13.592C845.176 12.696 847.416 12.248 849.917 12.248C853.203 12.248 855.965 12.9947 858.205 14.488C860.483 15.944 862.219 17.8667 863.413 20.256C864.608 22.608 865.205 25.184 865.205 27.984V31.008H838.045V25.912H859.773L856.861 28.264C856.861 26.4347 856.6 24.8667 856.077 23.56C855.555 22.2533 854.771 21.264 853.725 20.592C852.717 19.8827 851.448 19.528 849.917 19.528C848.349 19.528 847.024 19.8827 845.941 20.592C844.859 21.3013 844.037 22.3467 843.477 23.728C842.917 25.072 842.637 26.7333 842.637 28.712C842.637 30.5413 842.899 32.1467 843.421 33.528C843.944 34.872 844.765 35.9173 845.885 36.664C847.005 37.4107 848.461 37.784 850.253 37.784C851.896 37.784 853.24 37.4667 854.285 36.832C855.331 36.1973 856.04 35.4133 856.413 34.48H864.645C864.197 36.5333 863.32 38.3627 862.013 39.968C860.707 41.5733 859.064 42.824 857.085 43.72C855.107 44.616 852.829 45.064 850.253 45.064ZM885.919 45.064C883.268 45.064 880.953 44.6347 878.975 43.776C877.033 42.88 875.409 41.6853 874.103 40.192C872.796 38.6987 871.825 37.0187 871.191 35.152C870.556 33.248 870.239 31.288 870.239 29.272V28.208C870.239 26.1173 870.575 24.12 871.247 22.216C871.919 20.2747 872.908 18.5573 874.215 17.064C875.521 15.5707 877.145 14.3947 879.087 13.536C881.065 12.6773 883.324 12.248 885.863 12.248C888.625 12.248 891.071 12.7893 893.199 13.872C895.327 14.9173 897.025 16.392 898.295 18.296C899.564 20.2 900.273 22.384 900.423 24.848H891.631C891.481 23.4667 890.921 22.3093 889.951 21.376C889.017 20.4053 887.655 19.92 885.863 19.92C884.369 19.92 883.119 20.2933 882.111 21.04C881.14 21.7867 880.412 22.8133 879.927 24.12C879.441 25.4267 879.199 26.976 879.199 28.768C879.199 30.4107 879.423 31.904 879.871 33.248C880.319 34.5547 881.028 35.5813 881.999 36.328C883.007 37.0373 884.313 37.392 885.919 37.392C887.113 37.392 888.121 37.1867 888.943 36.776C889.801 36.328 890.473 35.7307 890.959 34.984C891.481 34.2 891.799 33.304 891.911 32.296H900.647C900.535 34.8347 899.825 37.0747 898.519 39.016C897.212 40.92 895.476 42.4133 893.311 43.496C891.145 44.5413 888.681 45.064 885.919 45.064ZM908.833 44V13.312H917.793V44H908.833ZM904.745 19.92V13.312H917.793V19.92H904.745ZM912.305 10.288C910.625 10.288 909.374 9.85866 908.553 9C907.769 8.104 907.377 6.984 907.377 5.64C907.377 4.25866 907.769 3.13866 908.553 2.28C909.374 1.384 910.625 0.935997 912.305 0.935997C913.985 0.935997 915.217 1.384 916.001 2.28C916.822 3.13866 917.233 4.25866 917.233 5.64C917.233 6.984 916.822 8.104 916.001 9C915.217 9.85866 913.985 10.288 912.305 10.288ZM945.616 44V34.928H944.104V25.072C944.104 23.504 943.731 22.328 942.984 21.544C942.238 20.76 941.043 20.368 939.4 20.368C938.579 20.368 937.496 20.3867 936.152 20.424C934.808 20.4613 933.427 20.5173 932.008 20.592C930.59 20.6667 929.302 20.7413 928.144 20.816V13.256C929.003 13.1813 930.011 13.1067 931.168 13.032C932.326 12.9573 933.52 12.9013 934.752 12.864C935.984 12.8267 937.142 12.808 938.224 12.808C941.36 12.808 943.992 13.256 946.12 14.152C948.286 15.048 949.928 16.4107 951.048 18.24C952.168 20.032 952.728 22.3467 952.728 25.184V44H945.616ZM935.816 44.784C933.614 44.784 931.672 44.392 929.992 43.608C928.35 42.824 927.062 41.704 926.128 40.248C925.195 38.7547 924.728 36.9813 924.728 34.928C924.728 32.688 925.307 30.8587 926.464 29.44C927.622 27.984 929.246 26.92 931.336 26.248C933.427 25.5387 935.835 25.184 938.56 25.184H945.112V30.168H938.504C936.936 30.168 935.723 30.56 934.864 31.344C934.043 32.0907 933.632 33.1173 933.632 34.424C933.632 35.656 934.043 36.664 934.864 37.448C935.723 38.1947 936.936 38.568 938.504 38.568C939.512 38.568 940.408 38.4 941.192 38.064C942.014 37.6907 942.686 37.0747 943.208 36.216C943.731 35.3573 944.03 34.1627 944.104 32.632L946.232 34.872C946.046 37 945.523 38.792 944.664 40.248C943.843 41.704 942.686 42.824 941.192 43.608C939.736 44.392 937.944 44.784 935.816 44.784ZM961.722 44V3.12H970.738V44H961.722ZM958.082 9.728V3.12H970.738V9.728H958.082ZM4.088 116V75.12H13.048V98.696H11.704C11.704 95.5973 12.096 92.984 12.88 90.856C13.664 88.728 14.8213 87.1227 16.352 86.04C17.8827 84.92 19.8053 84.36 22.12 84.36H22.512C25.9093 84.36 28.504 85.5733 30.296 88C32.088 90.3893 32.984 93.8987 32.984 98.528V116H24.024V97.968C24.024 96.288 23.52 94.944 22.512 93.936C21.5413 92.8907 20.2533 92.368 18.648 92.368C16.968 92.368 15.6053 92.9093 14.56 93.992C13.552 95.0747 13.048 96.512 13.048 98.304V116H4.088ZM51.9793 116.952C48.4326 116.952 45.7073 115.813 43.8033 113.536C41.8993 111.221 40.9473 107.749 40.9473 103.12V85.312H49.9073V103.568C49.9073 105.211 50.3739 106.517 51.3073 107.488C52.2406 108.459 53.4913 108.944 55.0593 108.944C56.6646 108.944 57.9713 108.44 58.9793 107.432C59.9873 106.424 60.4913 105.061 60.4913 103.344V85.312H69.4513V116H62.3393V103.064H62.9553C62.9553 106.163 62.5446 108.757 61.7233 110.848C60.9393 112.901 59.7633 114.432 58.1953 115.44C56.6273 116.448 54.6859 116.952 52.3713 116.952H51.9793ZM78.713 116V85.312H85.825V98.528H85.321C85.321 95.392 85.713 92.7787 86.497 90.688C87.281 88.5973 88.457 87.0293 90.025 85.984C91.593 84.9013 93.5157 84.36 95.793 84.36H96.185C98.4997 84.36 100.422 84.9013 101.953 85.984C103.521 87.0293 104.697 88.5973 105.481 90.688C106.302 92.7787 106.713 95.392 106.713 98.528H104.529C104.529 95.392 104.921 92.7787 105.705 90.688C106.526 88.5973 107.721 87.0293 109.289 85.984C110.857 84.9013 112.78 84.36 115.057 84.36H115.449C117.764 84.36 119.705 84.9013 121.273 85.984C122.878 87.0293 124.092 88.5973 124.913 90.688C125.734 92.7787 126.145 95.392 126.145 98.528V116H117.185V98.024C117.185 96.344 116.737 94.9813 115.841 93.936C114.982 92.8907 113.75 92.368 112.145 92.368C110.54 92.368 109.27 92.9093 108.337 93.992C107.404 95.0373 106.937 96.4373 106.937 98.192V116H97.921V98.024C97.921 96.344 97.473 94.9813 96.577 93.936C95.7183 92.8907 94.505 92.368 92.937 92.368C91.2943 92.368 90.0063 92.9093 89.073 93.992C88.1397 95.0373 87.673 96.4373 87.673 98.192V116H78.713ZM153.319 116V106.928H151.807V97.072C151.807 95.504 151.434 94.328 150.687 93.544C149.941 92.76 148.746 92.368 147.103 92.368C146.282 92.368 145.199 92.3867 143.855 92.424C142.511 92.4613 141.13 92.5173 139.711 92.592C138.293 92.6667 137.005 92.7413 135.847 92.816V85.256C136.706 85.1813 137.714 85.1067 138.871 85.032C140.029 84.9573 141.223 84.9013 142.455 84.864C143.687 84.8267 144.845 84.808 145.927 84.808C149.063 84.808 151.695 85.256 153.823 86.152C155.989 87.048 157.631 88.4107 158.751 90.24C159.871 92.032 160.431 94.3467 160.431 97.184V116H153.319ZM143.519 116.784C141.317 116.784 139.375 116.392 137.695 115.608C136.053 114.824 134.765 113.704 133.831 112.248C132.898 110.755 132.431 108.981 132.431 106.928C132.431 104.688 133.01 102.859 134.167 101.44C135.325 99.984 136.949 98.92 139.039 98.248C141.13 97.5387 143.538 97.184 146.263 97.184H152.815V102.168H146.207C144.639 102.168 143.426 102.56 142.567 103.344C141.746 104.091 141.335 105.117 141.335 106.424C141.335 107.656 141.746 108.664 142.567 109.448C143.426 110.195 144.639 110.568 146.207 110.568C147.215 110.568 148.111 110.4 148.895 110.064C149.717 109.691 150.389 109.075 150.911 108.216C151.434 107.357 151.733 106.163 151.807 104.632L153.935 106.872C153.749 109 153.226 110.792 152.367 112.248C151.546 113.704 150.389 114.824 148.895 115.608C147.439 116.392 145.647 116.784 143.519 116.784ZM169.033 116V85.312H176.145V98.472H175.641C175.641 95.336 176.033 92.7227 176.817 90.632C177.639 88.5413 178.871 86.9733 180.513 85.928C182.156 84.8827 184.153 84.36 186.505 84.36H186.897C190.481 84.36 193.207 85.536 195.073 87.888C196.977 90.2027 197.929 93.7307 197.929 98.472V116H188.969V97.968C188.969 96.3253 188.484 94.9813 187.513 93.936C186.543 92.8907 185.236 92.368 183.593 92.368C181.913 92.368 180.551 92.9093 179.505 93.992C178.497 95.0373 177.993 96.4187 177.993 98.136V116H169.033ZM230.578 116L236.178 86.32H245.978L252.474 116H245.53L238.866 86.544H242.842L236.85 116H230.578ZM228.45 116L228.394 108.552H234.554L234.61 116H228.45ZM224.418 116L216.186 85.312H224.978L232.65 116H224.418ZM247.826 116L247.882 108.552H254.042V116H247.826ZM250.346 116L257.178 85.312H265.41L258.018 116H250.346ZM273.403 116V85.312H282.363V116H273.403ZM269.315 91.92V85.312H282.363V91.92H269.315ZM276.875 82.288C275.195 82.288 273.945 81.8587 273.123 81C272.339 80.104 271.947 78.984 271.947 77.64C271.947 76.2587 272.339 75.1387 273.123 74.28C273.945 73.384 275.195 72.936 276.875 72.936C278.555 72.936 279.787 73.384 280.571 74.28C281.393 75.1387 281.803 76.2587 281.803 77.64C281.803 78.984 281.393 80.104 280.571 81C279.787 81.8587 278.555 82.288 276.875 82.288ZM305.595 116.392C302.496 116.392 299.995 116.019 298.091 115.272C296.187 114.488 294.787 113.2 293.891 111.408C293.032 109.579 292.603 107.115 292.603 104.016V77.024H300.947V104.352C300.947 105.808 301.32 106.928 302.067 107.712C302.851 108.459 303.952 108.832 305.371 108.832H309.907V116.392H305.595ZM287.955 91.864V85.312H309.907V91.864H287.955ZM316.932 116V75.12H325.892V98.696H324.548C324.548 95.5973 324.94 92.984 325.724 90.856C326.508 88.728 327.665 87.1227 329.196 86.04C330.726 84.92 332.649 84.36 334.964 84.36H335.356C338.753 84.36 341.348 85.5733 343.14 88C344.932 90.3893 345.828 93.8987 345.828 98.528V116H336.868V97.968C336.868 96.288 336.364 94.944 335.356 93.936C334.385 92.8907 333.097 92.368 331.492 92.368C329.812 92.368 328.449 92.9093 327.404 93.992C326.396 95.0747 325.892 96.512 325.892 98.304V116H316.932ZM378.869 116.952C374.501 116.952 371.085 116.056 368.621 114.264C366.157 112.472 364.85 109.952 364.701 106.704H372.653C372.802 107.675 373.381 108.552 374.389 109.336C375.434 110.083 376.983 110.456 379.037 110.456C380.605 110.456 381.893 110.195 382.901 109.672C383.946 109.112 384.469 108.328 384.469 107.32C384.469 106.424 384.077 105.715 383.293 105.192C382.509 104.632 381.109 104.24 379.093 104.016L376.685 103.792C372.989 103.419 370.207 102.392 368.341 100.712C366.511 99.032 365.597 96.8853 365.597 94.272C365.597 92.1067 366.138 90.296 367.221 88.84C368.303 87.384 369.797 86.2827 371.701 85.536C373.642 84.7893 375.845 84.416 378.309 84.416C382.266 84.416 385.458 85.2933 387.885 87.048C390.311 88.7653 391.581 91.2667 391.693 94.552H383.741C383.591 93.544 383.069 92.704 382.173 92.032C381.277 91.3227 379.951 90.968 378.197 90.968C376.815 90.968 375.714 91.2293 374.893 91.752C374.071 92.2747 373.661 92.984 373.661 93.88C373.661 94.7387 374.015 95.392 374.725 95.84C375.434 96.288 376.591 96.6053 378.197 96.792L380.605 97.016C384.375 97.4267 387.306 98.472 389.397 100.152C391.487 101.832 392.533 104.091 392.533 106.928C392.533 108.981 391.973 110.773 390.853 112.304C389.733 113.797 388.146 114.955 386.093 115.776C384.039 116.56 381.631 116.952 378.869 116.952ZM414.29 117.064C411.602 117.064 409.213 116.653 407.122 115.832C405.031 114.973 403.258 113.816 401.802 112.36C400.383 110.904 399.301 109.243 398.554 107.376C397.807 105.472 397.434 103.475 397.434 101.384V100.096C397.434 97.968 397.807 95.952 398.554 94.048C399.338 92.1067 400.458 90.408 401.914 88.952C403.407 87.496 405.199 86.3573 407.29 85.536C409.381 84.6773 411.714 84.248 414.29 84.248C416.941 84.248 419.293 84.6773 421.346 85.536C423.437 86.3573 425.21 87.496 426.666 88.952C428.122 90.408 429.242 92.1067 430.026 94.048C430.81 95.952 431.202 97.968 431.202 100.096V101.384C431.202 103.475 430.829 105.472 430.082 107.376C429.335 109.243 428.234 110.904 426.778 112.36C425.359 113.816 423.605 114.973 421.514 115.832C419.423 116.653 417.015 117.064 414.29 117.064ZM414.29 109.504C416.045 109.504 417.501 109.131 418.658 108.384C419.815 107.637 420.693 106.592 421.29 105.248C421.925 103.904 422.242 102.411 422.242 100.768C422.242 99.0133 421.925 97.4827 421.29 96.176C420.655 94.832 419.741 93.768 418.546 92.984C417.389 92.2 415.97 91.808 414.29 91.808C412.647 91.808 411.229 92.2 410.034 92.984C408.839 93.768 407.925 94.832 407.29 96.176C406.693 97.4827 406.394 99.0133 406.394 100.768C406.394 102.411 406.693 103.904 407.29 105.248C407.887 106.592 408.783 107.637 409.978 108.384C411.173 109.131 412.61 109.504 414.29 109.504ZM438.455 116V85.312H445.567V98.528H445.063C445.063 95.392 445.455 92.7787 446.239 90.688C447.023 88.5973 448.199 87.0293 449.767 85.984C451.335 84.9013 453.258 84.36 455.535 84.36H455.927C458.242 84.36 460.165 84.9013 461.695 85.984C463.263 87.0293 464.439 88.5973 465.223 90.688C466.045 92.7787 466.455 95.392 466.455 98.528H464.271C464.271 95.392 464.663 92.7787 465.447 90.688C466.269 88.5973 467.463 87.0293 469.031 85.984C470.599 84.9013 472.522 84.36 474.799 84.36H475.191C477.506 84.36 479.447 84.9013 481.015 85.984C482.621 87.0293 483.834 88.5973 484.655 90.688C485.477 92.7787 485.887 95.392 485.887 98.528V116H476.927V98.024C476.927 96.344 476.479 94.9813 475.583 93.936C474.725 92.8907 473.493 92.368 471.887 92.368C470.282 92.368 469.013 92.9093 468.079 93.992C467.146 95.0373 466.679 96.4373 466.679 98.192V116H457.663V98.024C457.663 96.344 457.215 94.9813 456.319 93.936C455.461 92.8907 454.247 92.368 452.679 92.368C451.037 92.368 449.749 92.9093 448.815 93.992C447.882 95.0373 447.415 96.4373 447.415 98.192V116H438.455ZM508.582 117.064C505.968 117.064 503.654 116.616 501.638 115.72C499.659 114.824 497.998 113.629 496.654 112.136C495.347 110.605 494.339 108.907 493.63 107.04C492.958 105.136 492.622 103.195 492.622 101.216V100.096C492.622 98.0427 492.958 96.0827 493.63 94.216C494.339 92.312 495.347 90.6133 496.654 89.12C497.96 87.6267 499.584 86.4507 501.526 85.592C503.504 84.696 505.744 84.248 508.246 84.248C511.531 84.248 514.294 84.9947 516.534 86.488C518.811 87.944 520.547 89.8667 521.742 92.256C522.936 94.608 523.534 97.184 523.534 99.984V103.008H496.374V97.912H518.102L515.19 100.264C515.19 98.4347 514.928 96.8667 514.406 95.56C513.883 94.2533 513.099 93.264 512.054 92.592C511.046 91.8827 509.776 91.528 508.246 91.528C506.678 91.528 505.352 91.8827 504.27 92.592C503.187 93.3013 502.366 94.3467 501.806 95.728C501.246 97.072 500.966 98.7333 500.966 100.712C500.966 102.541 501.227 104.147 501.75 105.528C502.272 106.872 503.094 107.917 504.214 108.664C505.334 109.411 506.79 109.784 508.582 109.784C510.224 109.784 511.568 109.467 512.614 108.832C513.659 108.197 514.368 107.413 514.742 106.48H522.974C522.526 108.533 521.648 110.363 520.342 111.968C519.035 113.573 517.392 114.824 515.414 115.72C513.435 116.616 511.158 117.064 508.582 117.064ZM561.765 116V106.928H560.253V97.072C560.253 95.504 559.879 94.328 559.133 93.544C558.386 92.76 557.191 92.368 555.549 92.368C554.727 92.368 553.645 92.3867 552.301 92.424C550.957 92.4613 549.575 92.5173 548.157 92.592C546.738 92.6667 545.45 92.7413 544.293 92.816V85.256C545.151 85.1813 546.159 85.1067 547.317 85.032C548.474 84.9573 549.669 84.9013 550.901 84.864C552.133 84.8267 553.29 84.808 554.373 84.808C557.509 84.808 560.141 85.256 562.269 86.152C564.434 87.048 566.077 88.4107 567.197 90.24C568.317 92.032 568.877 94.3467 568.877 97.184V116H561.765ZM551.965 116.784C549.762 116.784 547.821 116.392 546.141 115.608C544.498 114.824 543.21 113.704 542.277 112.248C541.343 110.755 540.877 108.981 540.877 106.928C540.877 104.688 541.455 102.859 542.613 101.44C543.77 99.984 545.394 98.92 547.485 98.248C549.575 97.5387 551.983 97.184 554.709 97.184H561.261V102.168H554.653C553.085 102.168 551.871 102.56 551.013 103.344C550.191 104.091 549.781 105.117 549.781 106.424C549.781 107.656 550.191 108.664 551.013 109.448C551.871 110.195 553.085 110.568 554.653 110.568C555.661 110.568 556.557 110.4 557.341 110.064C558.162 109.691 558.834 109.075 559.357 108.216C559.879 107.357 560.178 106.163 560.253 104.632L562.381 106.872C562.194 109 561.671 110.792 560.813 112.248C559.991 113.704 558.834 114.824 557.341 115.608C555.885 116.392 554.093 116.784 551.965 116.784ZM596.351 117.008C593.849 117.008 591.647 116.485 589.743 115.44C587.839 114.357 586.345 112.808 585.263 110.792C584.18 108.776 583.601 106.312 583.527 103.4H584.591V116H577.479V75.12H586.439V95.896L584.311 98.584C584.423 95.4853 585.001 92.8907 586.047 90.8C587.129 88.672 588.604 87.0853 590.471 86.04C592.337 84.9573 594.465 84.416 596.855 84.416C598.945 84.416 600.831 84.808 602.511 85.592C604.228 86.3387 605.684 87.4213 606.879 88.84C608.073 90.2213 608.988 91.864 609.623 93.768C610.295 95.672 610.631 97.744 610.631 99.984V101.216C610.631 103.456 610.295 105.528 609.623 107.432C608.988 109.336 608.036 111.016 606.767 112.472C605.535 113.891 604.041 115.011 602.287 115.832C600.532 116.616 598.553 117.008 596.351 117.008ZM593.999 109.504C595.529 109.504 596.855 109.131 597.975 108.384C599.132 107.637 600.028 106.592 600.663 105.248C601.297 103.867 601.615 102.317 601.615 100.6C601.615 98.8453 601.297 97.3147 600.663 96.008C600.028 94.7013 599.132 93.6933 597.975 92.984C596.855 92.2373 595.529 91.864 593.999 91.864C592.655 91.864 591.385 92.1813 590.191 92.816C588.996 93.4507 588.025 94.3653 587.279 95.56C586.569 96.7173 586.215 98.136 586.215 99.816V101.888C586.215 103.493 586.588 104.875 587.335 106.032C588.119 107.152 589.108 108.011 590.303 108.608C591.497 109.205 592.729 109.504 593.999 109.504ZM619.31 116V85.312H628.27V116H619.31ZM615.222 91.92V85.312H628.27V91.92H615.222ZM622.782 82.288C621.102 82.288 619.851 81.8587 619.03 81C618.246 80.104 617.854 78.984 617.854 77.64C617.854 76.2587 618.246 75.1387 619.03 74.28C619.851 73.384 621.102 72.936 622.782 72.936C624.462 72.936 625.694 73.384 626.478 74.28C627.299 75.1387 627.71 76.2587 627.71 77.64C627.71 78.984 627.299 80.104 626.478 81C625.694 81.8587 624.462 82.288 622.782 82.288ZM637.949 116V75.12H646.965V116H637.949ZM634.309 81.728V75.12H646.965V81.728H634.309ZM657.677 116V85.312H666.637V116H657.677ZM653.589 91.92V85.312H666.637V91.92H653.589ZM661.149 82.288C659.469 82.288 658.218 81.8587 657.397 81C656.613 80.104 656.221 78.984 656.221 77.64C656.221 76.2587 656.613 75.1387 657.397 74.28C658.218 73.384 659.469 72.936 661.149 72.936C662.829 72.936 664.061 73.384 664.845 74.28C665.666 75.1387 666.077 76.2587 666.077 77.64C666.077 78.984 665.666 80.104 664.845 81C664.061 81.8587 662.829 82.288 661.149 82.288ZM689.868 116.392C686.769 116.392 684.268 116.019 682.364 115.272C680.46 114.488 679.06 113.2 678.164 111.408C677.305 109.579 676.876 107.115 676.876 104.016V77.024H685.22V104.352C685.22 105.808 685.593 106.928 686.34 107.712C687.124 108.459 688.225 108.832 689.644 108.832H694.18V116.392H689.868ZM672.228 91.864V85.312H694.18V91.864H672.228ZM700.869 128.152V120.536H707.253C708.224 120.536 709.045 120.405 709.717 120.144C710.389 119.92 710.931 119.528 711.341 118.968C711.752 118.408 712.088 117.643 712.349 116.672L719.909 85.312H728.421L719.853 118.464C719.256 120.853 718.416 122.757 717.333 124.176C716.288 125.595 714.869 126.603 713.077 127.2C711.323 127.835 709.083 128.152 706.357 128.152H700.869ZM710.501 115.328V108.328H716.997V115.328H710.501ZM706.805 115.328L697.397 85.312H706.413L715.317 115.328H706.805ZM760.845 116.392C757.746 116.392 755.245 116.019 753.341 115.272C751.437 114.488 750.037 113.2 749.141 111.408C748.282 109.579 747.853 107.115 747.853 104.016V77.024H756.197V104.352C756.197 105.808 756.57 106.928 757.317 107.712C758.101 108.459 759.202 108.832 760.621 108.832H765.157V116.392H760.845ZM743.205 91.864V85.312H765.157V91.864H743.205ZM787.024 117.064C784.336 117.064 781.947 116.653 779.856 115.832C777.766 114.973 775.992 113.816 774.536 112.36C773.118 110.904 772.035 109.243 771.288 107.376C770.542 105.472 770.168 103.475 770.168 101.384V100.096C770.168 97.968 770.542 95.952 771.288 94.048C772.072 92.1067 773.192 90.408 774.648 88.952C776.142 87.496 777.934 86.3573 780.024 85.536C782.115 84.6773 784.448 84.248 787.024 84.248C789.675 84.248 792.027 84.6773 794.08 85.536C796.171 86.3573 797.944 87.496 799.4 88.952C800.856 90.408 801.976 92.1067 802.76 94.048C803.544 95.952 803.936 97.968 803.936 100.096V101.384C803.936 103.475 803.563 105.472 802.816 107.376C802.07 109.243 800.968 110.904 799.512 112.36C798.094 113.816 796.339 114.973 794.248 115.832C792.158 116.653 789.75 117.064 787.024 117.064ZM787.024 109.504C788.779 109.504 790.235 109.131 791.392 108.384C792.55 107.637 793.427 106.592 794.024 105.248C794.659 103.904 794.976 102.411 794.976 100.768C794.976 99.0133 794.659 97.4827 794.024 96.176C793.39 94.832 792.475 93.768 791.28 92.984C790.123 92.2 788.704 91.808 787.024 91.808C785.382 91.808 783.963 92.2 782.768 92.984C781.574 93.768 780.659 94.832 780.024 96.176C779.427 97.4827 779.128 99.0133 779.128 100.768C779.128 102.411 779.427 103.904 780.024 105.248C780.622 106.592 781.518 107.637 782.712 108.384C783.907 109.131 785.344 109.504 787.024 109.504ZM824.339 116V75.12H833.355V116H824.339ZM820.699 81.728V75.12H833.355V81.728H820.699ZM857.563 117.064C854.875 117.064 852.486 116.653 850.395 115.832C848.305 114.973 846.531 113.816 845.075 112.36C843.657 110.904 842.574 109.243 841.827 107.376C841.081 105.472 840.707 103.475 840.707 101.384V100.096C840.707 97.968 841.081 95.952 841.827 94.048C842.611 92.1067 843.731 90.408 845.187 88.952C846.681 87.496 848.473 86.3573 850.563 85.536C852.654 84.6773 854.987 84.248 857.563 84.248C860.214 84.248 862.566 84.6773 864.619 85.536C866.71 86.3573 868.483 87.496 869.939 88.952C871.395 90.408 872.515 92.1067 873.299 94.048C874.083 95.952 874.475 97.968 874.475 100.096V101.384C874.475 103.475 874.102 105.472 873.355 107.376C872.609 109.243 871.507 110.904 870.051 112.36C868.633 113.816 866.878 114.973 864.787 115.832C862.697 116.653 860.289 117.064 857.563 117.064ZM857.563 109.504C859.318 109.504 860.774 109.131 861.931 108.384C863.089 107.637 863.966 106.592 864.563 105.248C865.198 103.904 865.515 102.411 865.515 100.768C865.515 99.0133 865.198 97.4827 864.563 96.176C863.929 94.832 863.014 93.768 861.819 92.984C860.662 92.2 859.243 91.808 857.563 91.808C855.921 91.808 854.502 92.2 853.307 92.984C852.113 93.768 851.198 94.832 850.563 96.176C849.966 97.4827 849.667 99.0133 849.667 100.768C849.667 102.411 849.966 103.904 850.563 105.248C851.161 106.592 852.057 107.637 853.251 108.384C854.446 109.131 855.883 109.504 857.563 109.504ZM886.954 116L877.77 85.312H887.01L895.634 116H886.954ZM889.754 116V108.552H898.77V116H889.754ZM893.058 116L900.506 85.312H909.13L901.178 116H893.058ZM928.777 117.064C926.163 117.064 923.849 116.616 921.833 115.72C919.854 114.824 918.193 113.629 916.849 112.136C915.542 110.605 914.534 108.907 913.825 107.04C913.153 105.136 912.817 103.195 912.817 101.216V100.096C912.817 98.0427 913.153 96.0827 913.825 94.216C914.534 92.312 915.542 90.6133 916.849 89.12C918.155 87.6267 919.779 86.4507 921.721 85.592C923.699 84.696 925.939 84.248 928.441 84.248C931.726 84.248 934.489 84.9947 936.729 86.488C939.006 87.944 940.742 89.8667 941.937 92.256C943.131 94.608 943.729 97.184 943.729 99.984V103.008H916.569V97.912H938.297L935.385 100.264C935.385 98.4347 935.123 96.8667 934.601 95.56C934.078 94.2533 933.294 93.264 932.249 92.592C931.241 91.8827 929.971 91.528 928.441 91.528C926.873 91.528 925.547 91.8827 924.465 92.592C923.382 93.3013 922.561 94.3467 922.001 95.728C921.441 97.072 921.161 98.7333 921.161 100.712C921.161 102.541 921.422 104.147 921.945 105.528C922.467 106.872 923.289 107.917 924.409 108.664C925.529 109.411 926.985 109.784 928.777 109.784C930.419 109.784 931.763 109.467 932.809 108.832C933.854 108.197 934.563 107.413 934.937 106.48H943.169C942.721 108.533 941.843 110.363 940.537 111.968C939.23 113.573 937.587 114.824 935.609 115.72C933.63 116.616 931.353 117.064 928.777 117.064ZM4.48 188V147.12H13.496V188H4.48ZM0.84 153.728V147.12H13.496V153.728H0.84ZM36.8081 189.064C34.1947 189.064 31.8801 188.616 29.8641 187.72C27.8854 186.824 26.2241 185.629 24.8801 184.136C23.5734 182.605 22.5654 180.907 21.8561 179.04C21.1841 177.136 20.8481 175.195 20.8481 173.216V172.096C20.8481 170.043 21.1841 168.083 21.8561 166.216C22.5654 164.312 23.5734 162.613 24.8801 161.12C26.1867 159.627 27.8107 158.451 29.7521 157.592C31.7307 156.696 33.9707 156.248 36.4721 156.248C39.7574 156.248 42.5201 156.995 44.7601 158.488C47.0374 159.944 48.7734 161.867 49.9681 164.256C51.1627 166.608 51.7601 169.184 51.7601 171.984V175.008H24.6001V169.912H46.3281L43.4161 172.264C43.4161 170.435 43.1547 168.867 42.6321 167.56C42.1094 166.253 41.3254 165.264 40.2801 164.592C39.2721 163.883 38.0027 163.528 36.4721 163.528C34.9041 163.528 33.5787 163.883 32.4961 164.592C31.4134 165.301 30.5921 166.347 30.0321 167.728C29.4721 169.072 29.1921 170.733 29.1921 172.712C29.1921 174.541 29.4534 176.147 29.9761 177.528C30.4987 178.872 31.3201 179.917 32.4401 180.664C33.5601 181.411 35.0161 181.784 36.8081 181.784C38.4507 181.784 39.7947 181.467 40.8401 180.832C41.8854 180.197 42.5947 179.413 42.9681 178.48H51.2001C50.7521 180.533 49.8747 182.363 48.5681 183.968C47.2614 185.573 45.6187 186.824 43.6401 187.72C41.6614 188.616 39.3841 189.064 36.8081 189.064ZM77.2334 188V178.928H75.7214V169.072C75.7214 167.504 75.348 166.328 74.6014 165.544C73.8547 164.76 72.66 164.368 71.0174 164.368C70.196 164.368 69.1134 164.387 67.7694 164.424C66.4254 164.461 65.044 164.517 63.6254 164.592C62.2067 164.667 60.9187 164.741 59.7614 164.816V157.256C60.62 157.181 61.628 157.107 62.7854 157.032C63.9427 156.957 65.1374 156.901 66.3694 156.864C67.6014 156.827 68.7587 156.808 69.8414 156.808C72.9774 156.808 75.6094 157.256 77.7374 158.152C79.9027 159.048 81.5454 160.411 82.6654 162.24C83.7854 164.032 84.3454 166.347 84.3454 169.184V188H77.2334ZM67.4334 188.784C65.2307 188.784 63.2894 188.392 61.6094 187.608C59.9667 186.824 58.6787 185.704 57.7454 184.248C56.812 182.755 56.3454 180.981 56.3454 178.928C56.3454 176.688 56.924 174.859 58.0814 173.44C59.2387 171.984 60.8627 170.92 62.9534 170.248C65.044 169.539 67.452 169.184 70.1774 169.184H76.7294V174.168H70.1214C68.5534 174.168 67.34 174.56 66.4814 175.344C65.66 176.091 65.2494 177.117 65.2494 178.424C65.2494 179.656 65.66 180.664 66.4814 181.448C67.34 182.195 68.5534 182.568 70.1214 182.568C71.1294 182.568 72.0254 182.4 72.8094 182.064C73.6307 181.691 74.3027 181.075 74.8254 180.216C75.348 179.357 75.6467 178.163 75.7214 176.632L77.8494 178.872C77.6627 181 77.14 182.792 76.2814 184.248C75.46 185.704 74.3027 186.824 72.8094 187.608C71.3534 188.392 69.5614 188.784 67.4334 188.784ZM92.9474 188V157.312H100.059V170.472H99.8914C99.8914 166.141 100.806 162.8 102.635 160.448C104.502 158.096 107.19 156.92 110.699 156.92H111.875V164.648H109.635C107.171 164.648 105.267 165.32 103.923 166.664C102.579 167.971 101.907 169.875 101.907 172.376V188H92.9474ZM117.518 188V157.312H124.63V170.472H124.126C124.126 167.336 124.518 164.723 125.302 162.632C126.123 160.541 127.355 158.973 128.998 157.928C130.64 156.883 132.638 156.36 134.99 156.36H135.382C138.966 156.36 141.691 157.536 143.558 159.888C145.462 162.203 146.414 165.731 146.414 170.472V188H137.454V169.968C137.454 168.325 136.968 166.981 135.998 165.936C135.027 164.891 133.72 164.368 132.078 164.368C130.398 164.368 129.035 164.909 127.99 165.992C126.982 167.037 126.478 168.419 126.478 170.136V188H117.518ZM156.505 188V157.312H165.465V188H156.505ZM152.417 163.92V157.312H165.465V163.92H152.417ZM159.977 154.288C158.297 154.288 157.046 153.859 156.225 153C155.441 152.104 155.049 150.984 155.049 149.64C155.049 148.259 155.441 147.139 156.225 146.28C157.046 145.384 158.297 144.936 159.977 144.936C161.657 144.936 162.889 145.384 163.673 146.28C164.494 147.139 164.905 148.259 164.905 149.64C164.905 150.984 164.494 152.104 163.673 153C162.889 153.859 161.657 154.288 159.977 154.288ZM174.752 188V157.312H181.864V170.472H181.36C181.36 167.336 181.752 164.723 182.536 162.632C183.357 160.541 184.589 158.973 186.232 157.928C187.875 156.883 189.872 156.36 192.224 156.36H192.616C196.2 156.36 198.925 157.536 200.792 159.888C202.696 162.203 203.648 165.731 203.648 170.472V188H194.688V169.968C194.688 168.325 194.203 166.981 193.232 165.936C192.261 164.891 190.955 164.368 189.312 164.368C187.632 164.368 186.269 164.909 185.224 165.992C184.216 167.037 183.712 168.419 183.712 170.136V188H174.752ZM224.379 200.208C222.886 200.208 221.355 200.152 219.787 200.04C218.219 199.928 216.782 199.779 215.475 199.592V192.032C216.782 192.219 218.219 192.368 219.787 192.48C221.393 192.629 222.849 192.704 224.155 192.704C226.582 192.704 228.542 192.424 230.035 191.864C231.566 191.304 232.686 190.445 233.395 189.288C234.105 188.168 234.459 186.712 234.459 184.92V178.816L236.083 175.232C236.009 177.957 235.467 180.291 234.459 182.232C233.489 184.173 232.126 185.667 230.371 186.712C228.617 187.72 226.526 188.224 224.099 188.224C222.009 188.224 220.105 187.851 218.387 187.104C216.707 186.32 215.27 185.237 214.075 183.856C212.881 182.475 211.966 180.869 211.331 179.04C210.697 177.173 210.379 175.157 210.379 172.992V171.704C210.379 169.539 210.715 167.523 211.387 165.656C212.059 163.789 213.03 162.165 214.299 160.784C215.569 159.403 217.081 158.339 218.835 157.592C220.59 156.808 222.531 156.416 224.659 156.416C227.123 156.416 229.251 156.957 231.043 158.04C232.873 159.123 234.31 160.709 235.355 162.8C236.401 164.891 236.961 167.411 237.035 170.36L235.803 170.696V157.312H242.915V184.36C242.915 188.131 242.243 191.173 240.899 193.488C239.555 195.803 237.502 197.501 234.739 198.584C232.014 199.667 228.561 200.208 224.379 200.208ZM226.899 180.664C228.281 180.664 229.531 180.365 230.651 179.768C231.771 179.133 232.649 178.237 233.283 177.08C233.955 175.923 234.291 174.523 234.291 172.88V171.256C234.291 169.651 233.937 168.307 233.227 167.224C232.555 166.104 231.659 165.264 230.539 164.704C229.419 164.107 228.225 163.808 226.955 163.808C225.462 163.808 224.137 164.163 222.979 164.872C221.822 165.581 220.926 166.571 220.291 167.84C219.657 169.109 219.339 170.603 219.339 172.32C219.339 174.075 219.657 175.587 220.291 176.856C220.963 178.088 221.859 179.04 222.979 179.712C224.137 180.347 225.443 180.664 226.899 180.664ZM282.968 188V178.928H281.456V169.072C281.456 167.504 281.082 166.328 280.336 165.544C279.589 164.76 278.394 164.368 276.752 164.368C275.93 164.368 274.848 164.387 273.504 164.424C272.16 164.461 270.778 164.517 269.36 164.592C267.941 164.667 266.653 164.741 265.496 164.816V157.256C266.354 157.181 267.362 157.107 268.52 157.032C269.677 156.957 270.872 156.901 272.104 156.864C273.336 156.827 274.493 156.808 275.576 156.808C278.712 156.808 281.344 157.256 283.472 158.152C285.637 159.048 287.28 160.411 288.4 162.24C289.52 164.032 290.08 166.347 290.08 169.184V188H282.968ZM273.168 188.784C270.965 188.784 269.024 188.392 267.344 187.608C265.701 186.824 264.413 185.704 263.48 184.248C262.546 182.755 262.08 180.981 262.08 178.928C262.08 176.688 262.658 174.859 263.816 173.44C264.973 171.984 266.597 170.92 268.688 170.248C270.778 169.539 273.186 169.184 275.912 169.184H282.464V174.168H275.856C274.288 174.168 273.074 174.56 272.216 175.344C271.394 176.091 270.984 177.117 270.984 178.424C270.984 179.656 271.394 180.664 272.216 181.448C273.074 182.195 274.288 182.568 275.856 182.568C276.864 182.568 277.76 182.4 278.544 182.064C279.365 181.691 280.037 181.075 280.56 180.216C281.082 179.357 281.381 178.163 281.456 176.632L283.584 178.872C283.397 181 282.874 182.792 282.016 184.248C281.194 185.704 280.037 186.824 278.544 187.608C277.088 188.392 275.296 188.784 273.168 188.784ZM298.682 188V157.312H305.794V170.472H305.29C305.29 167.336 305.682 164.723 306.466 162.632C307.287 160.541 308.519 158.973 310.162 157.928C311.804 156.883 313.802 156.36 316.154 156.36H316.546C320.13 156.36 322.855 157.536 324.722 159.888C326.626 162.203 327.578 165.731 327.578 170.472V188H318.618V169.968C318.618 168.325 318.132 166.981 317.162 165.936C316.191 164.891 314.884 164.368 313.242 164.368C311.562 164.368 310.199 164.909 309.154 165.992C308.146 167.037 307.642 168.419 307.642 170.136V188H298.682ZM348.869 189.008C346.704 189.008 344.725 188.616 342.933 187.832C341.178 187.048 339.648 185.965 338.341 184.584C337.034 183.165 336.026 181.504 335.317 179.6C334.645 177.696 334.309 175.643 334.309 173.44V172.152C334.309 169.949 334.626 167.896 335.261 165.992C335.933 164.088 336.885 162.427 338.117 161.008C339.386 159.552 340.898 158.432 342.653 157.648C344.408 156.827 346.368 156.416 348.533 156.416C350.997 156.416 353.125 156.957 354.917 158.04C356.709 159.085 358.109 160.653 359.117 162.744C360.125 164.797 360.685 167.336 360.797 170.36L358.445 168.176V147.12H367.461V188H360.349V175.288H361.581C361.469 178.2 360.853 180.683 359.733 182.736C358.65 184.789 357.176 186.357 355.309 187.44C353.442 188.485 351.296 189.008 348.869 189.008ZM351.109 181.504C352.49 181.504 353.741 181.205 354.861 180.608C356.018 179.973 356.933 179.059 357.605 177.864C358.314 176.669 358.669 175.232 358.669 173.552V171.48C358.669 169.837 358.314 168.456 357.605 167.336C356.896 166.216 355.962 165.357 354.805 164.76C353.648 164.163 352.397 163.864 351.053 163.864C349.56 163.864 348.216 164.256 347.021 165.04C345.864 165.787 344.949 166.832 344.277 168.176C343.605 169.483 343.269 171.013 343.269 172.768C343.269 174.56 343.605 176.109 344.277 177.416C344.949 178.723 345.882 179.731 347.077 180.44C348.272 181.149 349.616 181.504 351.109 181.504ZM400.602 188L406.202 158.32H416.002L422.498 188H415.554L408.89 158.544H412.866L406.874 188H400.602ZM398.474 188L398.418 180.552H404.578L404.634 188H398.474ZM394.442 188L386.21 157.312H395.002L402.674 188H394.442ZM417.85 188L417.906 180.552H424.066V188H417.85ZM420.37 188L427.202 157.312H435.434L428.042 188H420.37ZM456.212 189.064C453.524 189.064 451.135 188.653 449.044 187.832C446.953 186.973 445.18 185.816 443.724 184.36C442.305 182.904 441.223 181.243 440.476 179.376C439.729 177.472 439.356 175.475 439.356 173.384V172.096C439.356 169.968 439.729 167.952 440.476 166.048C441.26 164.107 442.38 162.408 443.836 160.952C445.329 159.496 447.121 158.357 449.212 157.536C451.303 156.677 453.636 156.248 456.212 156.248C458.863 156.248 461.215 156.677 463.268 157.536C465.359 158.357 467.132 159.496 468.588 160.952C470.044 162.408 471.164 164.107 471.948 166.048C472.732 167.952 473.124 169.968 473.124 172.096V173.384C473.124 175.475 472.751 177.472 472.004 179.376C471.257 181.243 470.156 182.904 468.7 184.36C467.281 185.816 465.527 186.973 463.436 187.832C461.345 188.653 458.937 189.064 456.212 189.064ZM456.212 181.504C457.967 181.504 459.423 181.131 460.58 180.384C461.737 179.637 462.615 178.592 463.212 177.248C463.847 175.904 464.164 174.411 464.164 172.768C464.164 171.013 463.847 169.483 463.212 168.176C462.577 166.832 461.663 165.768 460.468 164.984C459.311 164.2 457.892 163.808 456.212 163.808C454.569 163.808 453.151 164.2 451.956 164.984C450.761 165.768 449.847 166.832 449.212 168.176C448.615 169.483 448.316 171.013 448.316 172.768C448.316 174.411 448.615 175.904 449.212 177.248C449.809 178.592 450.705 179.637 451.9 180.384C453.095 181.131 454.532 181.504 456.212 181.504ZM480.377 188V157.312H487.489V170.472H487.321C487.321 166.141 488.236 162.8 490.065 160.448C491.932 158.096 494.62 156.92 498.129 156.92H499.305V164.648H497.065C494.601 164.648 492.697 165.32 491.353 166.664C490.009 167.971 489.337 169.875 489.337 172.376V188H480.377ZM526.563 188L516.875 173.664H512.563L525.051 157.312H534.459L522.699 172.544L522.811 168.176L536.643 188H526.563ZM504.947 188V147.12H513.907V188H504.947ZM543.169 188V157.312H552.129V188H543.169ZM539.081 163.92V157.312H552.129V163.92H539.081ZM546.641 154.288C544.961 154.288 543.71 153.859 542.889 153C542.105 152.104 541.713 150.984 541.713 149.64C541.713 148.259 542.105 147.139 542.889 146.28C543.71 145.384 544.961 144.936 546.641 144.936C548.321 144.936 549.553 145.384 550.337 146.28C551.158 147.139 551.569 148.259 551.569 149.64C551.569 150.984 551.158 152.104 550.337 153C549.553 153.859 548.321 154.288 546.641 154.288ZM561.416 188V157.312H568.528V170.472H568.024C568.024 167.336 568.416 164.723 569.2 162.632C570.021 160.541 571.253 158.973 572.896 157.928C574.539 156.883 576.536 156.36 578.888 156.36H579.28C582.864 156.36 585.589 157.536 587.456 159.888C589.36 162.203 590.312 165.731 590.312 170.472V188H581.352V169.968C581.352 168.325 580.867 166.981 579.896 165.936C578.925 164.891 577.619 164.368 575.976 164.368C574.296 164.368 572.933 164.909 571.888 165.992C570.88 167.037 570.376 168.419 570.376 170.136V188H561.416ZM611.043 200.208C609.55 200.208 608.019 200.152 606.451 200.04C604.883 199.928 603.446 199.779 602.139 199.592V192.032C603.446 192.219 604.883 192.368 606.451 192.48C608.057 192.629 609.513 192.704 610.819 192.704C613.246 192.704 615.206 192.424 616.699 191.864C618.23 191.304 619.35 190.445 620.059 189.288C620.769 188.168 621.123 186.712 621.123 184.92V178.816L622.747 175.232C622.673 177.957 622.131 180.291 621.123 182.232C620.153 184.173 618.79 185.667 617.035 186.712C615.281 187.72 613.19 188.224 610.763 188.224C608.673 188.224 606.769 187.851 605.051 187.104C603.371 186.32 601.934 185.237 600.739 183.856C599.545 182.475 598.63 180.869 597.995 179.04C597.361 177.173 597.043 175.157 597.043 172.992V171.704C597.043 169.539 597.379 167.523 598.051 165.656C598.723 163.789 599.694 162.165 600.963 160.784C602.233 159.403 603.745 158.339 605.499 157.592C607.254 156.808 609.195 156.416 611.323 156.416C613.787 156.416 615.915 156.957 617.707 158.04C619.537 159.123 620.974 160.709 622.019 162.8C623.065 164.891 623.625 167.411 623.699 170.36L622.467 170.696V157.312H629.579V184.36C629.579 188.131 628.907 191.173 627.563 193.488C626.219 195.803 624.166 197.501 621.403 198.584C618.678 199.667 615.225 200.208 611.043 200.208ZM613.563 180.664C614.945 180.664 616.195 180.365 617.315 179.768C618.435 179.133 619.313 178.237 619.947 177.08C620.619 175.923 620.955 174.523 620.955 172.88V171.256C620.955 169.651 620.601 168.307 619.891 167.224C619.219 166.104 618.323 165.264 617.203 164.704C616.083 164.107 614.889 163.808 613.619 163.808C612.126 163.808 610.801 164.163 609.643 164.872C608.486 165.581 607.59 166.571 606.955 167.84C606.321 169.109 606.003 170.603 606.003 172.32C606.003 174.075 606.321 175.587 606.955 176.856C607.627 178.088 608.523 179.04 609.643 179.712C610.801 180.347 612.107 180.664 613.563 180.664ZM666.048 189.064C663.36 189.064 660.97 188.653 658.88 187.832C656.789 186.973 655.016 185.816 653.56 184.36C652.141 182.904 651.058 181.243 650.312 179.376C649.565 177.472 649.192 175.475 649.192 173.384V172.096C649.192 169.968 649.565 167.952 650.312 166.048C651.096 164.107 652.216 162.408 653.672 160.952C655.165 159.496 656.957 158.357 659.048 157.536C661.138 156.677 663.472 156.248 666.048 156.248C668.698 156.248 671.05 156.677 673.104 157.536C675.194 158.357 676.968 159.496 678.424 160.952C679.88 162.408 681 164.107 681.784 166.048C682.568 167.952 682.96 169.968 682.96 172.096V173.384C682.96 175.475 682.586 177.472 681.84 179.376C681.093 181.243 679.992 182.904 678.536 184.36C677.117 185.816 675.362 186.973 673.272 187.832C671.181 188.653 668.773 189.064 666.048 189.064ZM666.048 181.504C667.802 181.504 669.258 181.131 670.416 180.384C671.573 179.637 672.45 178.592 673.048 177.248C673.682 175.904 674 174.411 674 172.768C674 171.013 673.682 169.483 673.048 168.176C672.413 166.832 671.498 165.768 670.304 164.984C669.146 164.2 667.728 163.808 666.048 163.808C664.405 163.808 662.986 164.2 661.792 164.984C660.597 165.768 659.682 166.832 659.048 168.176C658.45 169.483 658.152 171.013 658.152 172.768C658.152 174.411 658.45 175.904 659.048 177.248C659.645 178.592 660.541 179.637 661.736 180.384C662.93 181.131 664.368 181.504 666.048 181.504ZM690.213 188V157.312H697.325V170.472H696.821C696.821 167.336 697.213 164.723 697.997 162.632C698.818 160.541 700.05 158.973 701.693 157.928C703.336 156.883 705.333 156.36 707.685 156.36H708.077C711.661 156.36 714.386 157.536 716.253 159.888C718.157 162.203 719.109 165.731 719.109 170.472V188H710.149V169.968C710.149 168.325 709.664 166.981 708.693 165.936C707.722 164.891 706.416 164.368 704.773 164.368C703.093 164.368 701.73 164.909 700.685 165.992C699.677 167.037 699.173 168.419 699.173 170.136V188H690.213ZM18.032 260.392C14.9333 260.392 12.432 260.019 10.528 259.272C8.624 258.488 7.224 257.2 6.328 255.408C5.46933 253.579 5.04 251.115 5.04 248.016V221.024H13.384V248.352C13.384 249.808 13.7573 250.928 14.504 251.712C15.288 252.459 16.3893 252.832 17.808 252.832H22.344V260.392H18.032ZM0.392 235.864V229.312H22.344V235.864H0.392ZM43.3159 261.064C40.7025 261.064 38.3879 260.616 36.3719 259.72C34.3932 258.824 32.7319 257.629 31.3879 256.136C30.0812 254.605 29.0732 252.907 28.3639 251.04C27.6919 249.136 27.3559 247.195 27.3559 245.216V244.096C27.3559 242.043 27.6919 240.083 28.3639 238.216C29.0732 236.312 30.0812 234.613 31.3879 233.12C32.6945 231.627 34.3185 230.451 36.2599 229.592C38.2385 228.696 40.4785 228.248 42.9799 228.248C46.2652 228.248 49.0279 228.995 51.2679 230.488C53.5452 231.944 55.2812 233.867 56.4759 236.256C57.6705 238.608 58.2679 241.184 58.2679 243.984V247.008H31.1079V241.912H52.8359L49.9239 244.264C49.9239 242.435 49.6625 240.867 49.1399 239.56C48.6172 238.253 47.8332 237.264 46.7879 236.592C45.7799 235.883 44.5105 235.528 42.9799 235.528C41.4119 235.528 40.0865 235.883 39.0039 236.592C37.9212 237.301 37.0999 238.347 36.5399 239.728C35.9799 241.072 35.6999 242.733 35.6999 244.712C35.6999 246.541 35.9612 248.147 36.4839 249.528C37.0065 250.872 37.8279 251.917 38.9479 252.664C40.0679 253.411 41.5239 253.784 43.3159 253.784C44.9585 253.784 46.3025 253.467 47.3479 252.832C48.3932 252.197 49.1025 251.413 49.4759 250.48H57.7079C57.2599 252.533 56.3825 254.363 55.0759 255.968C53.7692 257.573 52.1265 258.824 50.1479 259.72C48.1692 260.616 45.8919 261.064 43.3159 261.064ZM83.7412 260V250.928H82.2292V241.072C82.2292 239.504 81.8559 238.328 81.1092 237.544C80.3625 236.76 79.1679 236.368 77.5252 236.368C76.7039 236.368 75.6212 236.387 74.2772 236.424C72.9332 236.461 71.5519 236.517 70.1332 236.592C68.7145 236.667 67.4265 236.741 66.2692 236.816V229.256C67.1279 229.181 68.1359 229.107 69.2932 229.032C70.4505 228.957 71.6452 228.901 72.8772 228.864C74.1092 228.827 75.2665 228.808 76.3492 228.808C79.4852 228.808 82.1172 229.256 84.2452 230.152C86.4105 231.048 88.0532 232.411 89.1732 234.24C90.2932 236.032 90.8532 238.347 90.8532 241.184V260H83.7412ZM73.9412 260.784C71.7385 260.784 69.7972 260.392 68.1172 259.608C66.4745 258.824 65.1865 257.704 64.2532 256.248C63.3199 254.755 62.8532 252.981 62.8532 250.928C62.8532 248.688 63.4319 246.859 64.5892 245.44C65.7465 243.984 67.3705 242.92 69.4612 242.248C71.5519 241.539 73.9599 241.184 76.6852 241.184H83.2372V246.168H76.6292C75.0612 246.168 73.8479 246.56 72.9892 247.344C72.1679 248.091 71.7572 249.117 71.7572 250.424C71.7572 251.656 72.1679 252.664 72.9892 253.448C73.8479 254.195 75.0612 254.568 76.6292 254.568C77.6372 254.568 78.5332 254.4 79.3172 254.064C80.1385 253.691 80.8105 253.075 81.3332 252.216C81.8559 251.357 82.1545 250.163 82.2292 248.632L84.3572 250.872C84.1705 253 83.6479 254.792 82.7892 256.248C81.9679 257.704 80.8105 258.824 79.3172 259.608C77.8612 260.392 76.0692 260.784 73.9412 260.784ZM99.4552 260V229.312H106.567V242.528H106.063C106.063 239.392 106.455 236.779 107.239 234.688C108.023 232.597 109.199 231.029 110.767 229.984C112.335 228.901 114.258 228.36 116.535 228.36H116.927C119.242 228.36 121.165 228.901 122.695 229.984C124.263 231.029 125.439 232.597 126.223 234.688C127.045 236.779 127.455 239.392 127.455 242.528H125.271C125.271 239.392 125.663 236.779 126.447 234.688C127.269 232.597 128.463 231.029 130.031 229.984C131.599 228.901 133.522 228.36 135.799 228.36H136.191C138.506 228.36 140.447 228.901 142.015 229.984C143.621 231.029 144.834 232.597 145.655 234.688C146.477 236.779 146.887 239.392 146.887 242.528V260H137.927V242.024C137.927 240.344 137.479 238.981 136.583 237.936C135.725 236.891 134.493 236.368 132.887 236.368C131.282 236.368 130.013 236.909 129.079 237.992C128.146 239.037 127.679 240.437 127.679 242.192V260H118.663V242.024C118.663 240.344 118.215 238.981 117.319 237.936C116.461 236.891 115.247 236.368 113.679 236.368C112.037 236.368 110.749 236.909 109.815 237.992C108.882 239.037 108.415 240.437 108.415 242.192V260H99.4552ZM166.563 260L172.163 230.32H181.963L188.459 260H181.515L174.851 230.544H178.827L172.835 260H166.563ZM164.435 260L164.379 252.552H170.539L170.595 260H164.435ZM160.403 260L152.171 229.312H160.963L168.635 260H160.403ZM183.811 260L183.867 252.552H190.027V260H183.811ZM186.331 260L193.163 229.312H201.395L194.003 260H186.331ZM222.173 261.064C219.485 261.064 217.095 260.653 215.005 259.832C212.914 258.973 211.141 257.816 209.685 256.36C208.266 254.904 207.183 253.243 206.437 251.376C205.69 249.472 205.317 247.475 205.317 245.384V244.096C205.317 241.968 205.69 239.952 206.437 238.048C207.221 236.107 208.341 234.408 209.797 232.952C211.29 231.496 213.082 230.357 215.173 229.536C217.263 228.677 219.597 228.248 222.173 228.248C224.823 228.248 227.175 228.677 229.229 229.536C231.319 230.357 233.093 231.496 234.549 232.952C236.005 234.408 237.125 236.107 237.909 238.048C238.693 239.952 239.085 241.968 239.085 244.096V245.384C239.085 247.475 238.711 249.472 237.965 251.376C237.218 253.243 236.117 254.904 234.661 256.36C233.242 257.816 231.487 258.973 229.397 259.832C227.306 260.653 224.898 261.064 222.173 261.064ZM222.173 253.504C223.927 253.504 225.383 253.131 226.541 252.384C227.698 251.637 228.575 250.592 229.173 249.248C229.807 247.904 230.125 246.411 230.125 244.768C230.125 243.013 229.807 241.483 229.173 240.176C228.538 238.832 227.623 237.768 226.429 236.984C225.271 236.2 223.853 235.808 222.173 235.808C220.53 235.808 219.111 236.2 217.917 236.984C216.722 237.768 215.807 238.832 215.173 240.176C214.575 241.483 214.277 243.013 214.277 244.768C214.277 246.411 214.575 247.904 215.173 249.248C215.77 250.592 216.666 251.637 217.861 252.384C219.055 253.131 220.493 253.504 222.173 253.504ZM246.338 260V229.312H253.45V242.472H253.282C253.282 238.141 254.197 234.8 256.026 232.448C257.893 230.096 260.581 228.92 264.09 228.92H265.266V236.648H263.026C260.562 236.648 258.658 237.32 257.314 238.664C255.97 239.971 255.298 241.875 255.298 244.376V260H246.338ZM292.524 260L282.836 245.664H278.524L291.012 229.312H300.42L288.66 244.544L288.772 240.176L302.604 260H292.524ZM270.908 260V219.12H279.868V260H270.908ZM306.274 260V249.976H316.13V260H306.274Z" fill="url(#paint0_linear_814_159)"/>
<defs>
<linearGradient id="paint0_linear_814_159" x1="-871.492" y1="103.133" x2="-671.881" y2="792.041" gradientUnits="userSpaceOnUse">
<stop offset="0.505208" stop-color="#3BF686"/>
<stop offset="0.895833" stop-color="#4CA9FF"/>
</linearGradient>
</defs>
</svg>
